<?xml version="1.0" standalone="no"?>
<!DOCTYPE svg PUBLIC "-//W3C//DTD SVG 1.1//EN" "http://www.w3.org/Graphics/SVG/1.1/DTD/svg11.dtd">
<svg version="1.1" id="Layer_1" xmlns="http://www.w3.org/2000/svg" xmlns:xlink="http://www.w3.org/1999/xlink" x="0px" y="0px"
	 width="192.756px" height="192.756px" viewBox="0 0 192.756 192.756" style="enable-background:new 0 0 192.756 192.756;"
	 xml:space="preserve">
<g>
	<polygon style="fill-rule:evenodd;clip-rule:evenodd;fill:#FFFFFF;" points="0,0 192.756,0 192.756,192.756 0,192.756 0,0 	"/>
	<path style="fill-rule:evenodd;clip-rule:evenodd;" d="M176.498,96.381c0,44.246-35.869,80.113-80.12,80.113
		c-44.248,0-80.121-35.867-80.121-80.113c0-44.25,35.873-80.12,80.121-80.12C140.629,16.261,176.498,52.13,176.498,96.381
		L176.498,96.381z"/>
	<path style="fill:none;stroke:#FFFFFF;stroke-width:0.8158;stroke-miterlimit:2.6131;" d="M169.271,96.381
		c0,40.248-32.641,72.887-72.89,72.887c-40.257,0-72.89-32.639-72.89-72.887c0-40.258,32.633-72.886,72.89-72.886
		C136.631,23.495,169.271,56.123,169.271,96.381L169.271,96.381z"/>
	<path style="fill-rule:evenodd;clip-rule:evenodd;fill:#FFFFFF;" d="M58.058,65.75c1.461,3.506,4.237,7.451,8.912,7.451
		c3.068,0,6.721-2.045,8.62-2.045c2.921,0,4.675,0.877,5.405,1.607c-1.461-3.36-4.675-4.383-6.574-4.383
		c-2.484,0-5.26,1.315-8.912,1.315S59.52,67.211,58.058,65.75L58.058,65.75z"/>
	<path style="fill-rule:evenodd;clip-rule:evenodd;fill:#FFFFFF;" d="M83.771,52.309c-1.168,0.877-2.191,2.63-2.483,4.237
		c-2.337-1.315-4.529-2.045-6.428-2.045c-3.945,0-8.62,3.068-9.058,13.002c3.944-1.899,6.428-2.483,8.181-2.483
		c1.461,0,2.483,0.292,3.214,1.168c1.753,2.338,3.652,2.776,4.968,3.068c0.876,0.438,2.337,0.876,3.798,1.753
		c-3.213,4.236-6.428,5.259-8.912,5.259c-2.629,0-4.382-1.023-6.282-2.484c-0.292,5.406,1.606,8.913,7.597,9.205
		c-2.483,3.652-3.214,8.912-2.63,13.586c1.607-3.213,3.214-4.967,5.698-5.843c-1.753,2.775-2.63,5.552-2.63,8.181
		c0,6.574,4.967,10.52,6.574,11.834c0.584-4.967,2.191-8.912,3.506-10.957c0.584,9.35-0.438,16.947-1.607,19.869
		c6.867-1.607,11.396-4.238,14.609-8.475c1.607-3.359,1.754-8.18,1.607-12.564c1.607,2.047,3.506,5.26,4.236,7.451
		c4.238-2.629,5.99-6.719,5.99-11.395c0-1.753-0.438-4.237-0.73-5.405c1.461,1.168,2.631,2.483,3.799,4.383l0.877-1.899
		c1.021-2.338,1.461-4.967,1.461-7.451c0-3.506-0.73-6.428-2.922-9.935c1.461,0.292,3.799,1.315,4.967,2.191
		c0.877-7.159-0.73-12.71-4.967-16.947c0.877-1.606,1.754-3.067,2.922-5.844c-0.293-0.292-1.168-0.438-1.168-0.438
		c-0.293-0.146-1.023-0.292-2.338-0.292c-1.17,0-2.922,0.146-4.676,0.876c-0.438-0.73-1.023-1.315-1.461-1.899l8.182-19.577
		c-3.506,0-7.012,1.461-7.012,4.383c0,0.877,0.291,1.899,1.168,2.922c0,0.146-0.146,0.146-0.293,0.146c0,0,0,0-0.145,0
		c-0.586-0.73-1.463-1.169-2.338-1.169c-1.9,0-3.361,1.607-3.361,3.36c0,1.899,1.461,3.36,3.361,3.36c0.145,0,0.438,0,0.584-0.146
		c-1.754,1.753-3.506,2.338-5.26,2.338c-3.068,0-5.551-2.338-5.99-3.799c0.586,0.438,1.314,0.73,2.191,0.73
		c1.754,0,3.215-1.461,3.215-3.36c0-1.753-1.461-3.36-3.215-3.36c-0.584,0-1.168,0.146-1.605,0.438
		c0.582-0.584,0.875-1.461,0.875-2.337c0-1.753-1.461-3.214-3.213-3.214c-1.9,0-3.361,1.461-3.361,3.214
		c0,1.023,0.438,1.899,1.023,2.484c-0.438-0.292-1.169-0.584-1.753-0.584c-1.899,0-3.36,1.607-3.36,3.36
		c0,1.899,1.461,3.36,3.36,3.36c0.73,0,1.461-0.292,1.9-0.584c-1.315,2.629-3.653,3.36-5.845,3.36c-2.63,0-4.967-1.169-5.113-2.046
		c0.146,0.146,0.438,0.146,0.584,0.146c1.899,0,3.361-1.461,3.361-3.36c0-1.753-1.462-3.36-3.361-3.36
		c-0.876,0-1.753,0.438-2.337,1.169c-0.146,0-0.146,0-0.146,0c-0.146,0-0.146,0-0.146-0.146c0.73-1.022,1.022-2.045,1.022-2.922
		c0-2.922-3.506-4.383-7.012-4.383L83.771,52.309L83.771,52.309z"/>
	<path style="fill-rule:evenodd;clip-rule:evenodd;" d="M88.592,59.614c0.438,0,1.023,0,1.461,0.146
		c-0.584,2.63-2.484,3.068-3.799,3.068c-1.607,0-3.36-0.73-3.36-3.214c0.292,0.146,0.73,0.146,1.022,0.146
		c0.292,0.731,0.877,1.608,2.337,1.608C87.716,61.368,88.446,60.345,88.592,59.614L88.592,59.614z"/>
	<path style="fill-rule:evenodd;clip-rule:evenodd;" d="M80.996,59.03c-0.292,2.045,0.584,5.697,5.405,5.697
		c1.753,0,4.529-0.876,5.406-4.675c0.292,0,0.584,0.146,0.876,0.292c0.438-0.438,0.73-0.877,1.022-1.607
		c-1.606-1.022-4.236-1.168-5.844-1.168c-1.022,0-1.899,0.146-2.775,0.146c-0.73,0-1.607-0.146-2.191-0.292
		c0.438-1.753,1.168-3.36,2.045-3.36h23.667c0.146,0.146,0.439,0.439,0.439,0.73c-2.193,1.315-4.238,3.215-5.99,5.552
		c0.291,0.438,1.023,1.023,1.607,1.315c4.09-5.406,8.619-6.429,11.395-6.282c-4.236,8.62-12.564,11.688-19.43,12.418
		c5.844,2.191,9.788,5.552,5.989,11.98c-1.314-3.214-3.213-5.113-6.866-7.013c2.483,7.451,0.584,11.542-1.753,13.879
		c-0.146-1.607-0.73-5.113-1.752-7.597c-1.023,1.461-2.192,2.776-3.361,3.653c-0.146,0.876,0,2.191,0.146,2.775
		c0.876-0.584,1.753-1.314,2.191-1.899c0.438,2.191,0.877,4.529,0.585,7.159c6.867-3.214,7.597-9.351,7.304-12.564
		c1.607,1.899,2.338,4.091,2.775,6.574c4.822-5.844,6.283-11.834,1.17-15.925c5.844-2.045,8.766-4.091,11.834-7.597
		c3.506,3.506,4.383,8.035,4.236,11.834c-2.045-0.73-4.092-1.315-7.742-1.315c2.336,2.191,5.551,6.429,5.551,12.419
		c0,1.752-0.293,3.36-0.73,4.967c-2.045-2.192-4.383-3.361-7.014-4.383c1.17,2.776,2.338,5.99,2.338,9.935
		c0,3.36-1.021,5.991-2.922,7.889c-1.461-3.068-4.236-6.866-7.596-8.912c0.584,6.136,0.438,13.587-1.023,16.363
		c-2.631,3.359-5.844,5.113-9.497,6.428c0.73-3.799,1.315-13.439,0-22.207c-2.045,1.9-5.26,5.843-6.574,12.126
		c-1.168-1.314-2.922-3.506-2.922-7.451c0-3.799,2.045-7.597,5.552-11.396c-2.922,0.146-5.698,0.584-8.474,2.629
		c0.584-4.821,3.214-7.889,6.282-10.227c-2.922,0.585-4.383,0.876-5.844,0.876c-1.899,0-4.237-0.584-4.967-2.922
		c0.877,0.292,2.191,0.584,3.506,0.584c3.069,0,6.867-1.314,10.665-6.428c0.438-0.438,0.584-0.877,0.584-1.169
		c0-1.899-3.944-3.36-6.282-3.945c-0.292-0.146-1.898-0.438-3.068-2.192c-1.314-1.314-2.922-1.899-4.967-1.899
		c-1.607,0-3.36,0.438-5.551,1.169c0.584-2.776,2.191-7.159,6.428-7.159C76.613,56.838,78.658,57.569,80.996,59.03L80.996,59.03z"/>
	<path style="fill-rule:evenodd;clip-rule:evenodd;fill:#FFFFFF;" d="M73.208,129.74h-8.619c0-2.338-1.461-2.629-3.507-2.629
		c-1.899,0-3.067,0.584-3.067,1.898c0,1.461,1.022,1.9,4.09,1.9c7.743,0,11.103,1.461,11.688,4.967l4.967-12.273h10.957l5.406,13.15
		l5.405-13.15h10.957l5.99,14.611v-14.611h17.531c4.383,0,5.553,3.215,5.553,4.969c0,1.752-0.73,4.09-4.09,4.527
		c3.797,0.439,4.674,3.361,4.674,5.115c0,2.045-1.461,5.404-5.404,5.404H112.07l-1.316-3.213h-9.641l-1.316,3.213h-9.35
		l-1.314-3.213h-9.789l-1.169,3.213h-7.598l0.731-1.752c-1.168,1.021-3.214,2.191-9.935,2.191c-6.574,0-12.272-1.316-12.418-6.721
		h8.62c0,1.314,0.876,2.629,3.652,2.629c3.36,0,3.652-1.168,3.652-1.898c0-1.314-0.876-2.191-4.967-2.191
		c-5.99,0-10.227-1.023-10.227-5.844c0-5.553,6.283-6.721,11.396-6.721C67.364,123.312,73.208,124.336,73.208,129.74L73.208,129.74
		L73.208,129.74z M109.002,135.73l-3.068-7.305l-2.922,7.305H109.002L109.002,135.73L109.002,135.73z M87.233,135.73l-2.922-7.305
		l-3.068,7.305H87.233L87.233,135.73L87.233,135.73z M132.23,129.887c0-0.877-0.584-1.461-1.314-1.461h-6.281v2.922h6.281
		C131.646,131.348,132.23,130.617,132.23,129.887L132.23,129.887L132.23,129.887z M131.355,138.359c0.729,0,1.314-0.584,1.314-1.461
		c0-0.73-0.586-1.314-1.314-1.314h-6.721v2.775H131.355L131.355,138.359z"/>
	<polygon style="fill-rule:evenodd;clip-rule:evenodd;" points="107.738,52.024 85.386,52.024 84.417,49.687 108.705,49.687
		107.738,52.024 	"/>
</g>
</svg>
